<svg xmlns="http://www.w3.org/2000/svg" width="86.472" height="86.474" viewBox="0 0 86.472 86.474"><g data-name="Group 15" fill="#ca1f26"><path data-name="Path 130" d="M69.736 64.547V38.663l-5.579 3.905v18.073z" opacity=".2"/><path data-name="Path 131" d="M61.369 43.236h-8.368a5.584 5.584 0 0 0-5.579 5.579v5.579a5.584 5.584 0 0 0 5.579 5.579h8.368z" opacity=".6"/><path data-name="Path 132" d="M53 72.525a2.79 2.79 0 1 0 5.579 0v-9.763H53z" opacity=".2"/><path data-name="Path 133" d="M2.789 79.5a4.184 4.184 0 1 0 8.368 0V11.158H2.789z" opacity=".6"/><path data-name="Rectangle 184" opacity=".6" d="M19.527 36.267h19.525v22.306H19.527z"/><path data-name="Path 135" d="M66.947 8.368H19.526v19.526h47.421zM32.081 23.711a1.4 1.4 0 0 1-2.577.739l-4.4-7.034v7.689h-2.789V12.553a1.394 1.394 0 0 1 2.574-.74l4.4 7.034v-7.689h2.792zm9.761 1.394h-5.579a1.4 1.4 0 0 1-1.4-1.395V12.553a1.4 1.4 0 0 1 1.4-1.395h5.578v2.789h-4.184v2.79h4.184v2.789h-4.184v2.79h4.185zm11.162-1.4a1.4 1.4 0 0 1-1.131 1.37 1.371 1.371 0 0 1-.264.025 1.4 1.4 0 0 1-1.3-.877l-1.494-3.736-1.494 3.738a1.4 1.4 0 0 1-2.69-.519V11.158h2.788v5.312l.1-.251a1.4 1.4 0 0 1 2.591 0l.1.25v-5.311h2.794zm11.152-9.762h-4.187a1.4 1.4 0 0 0 0 2.789 4.184 4.184 0 0 1 0 8.368h-4.184v-2.783h4.259a1.4 1.4 0 1 0-.075-2.789 4.184 4.184 0 0 1 0-8.368h4.184z" opacity=".2"/><path data-name="Path 136" d="M72.525 36.709V66.5l2.79 1.953v-33.7z" opacity=".6"/><path data-name="Path 137" d="M18.132 30.679h50.2a1.4 1.4 0 0 0 1.4-1.39V6.974a1.4 1.4 0 0 0-1.4-1.4h-50.2a1.4 1.4 0 0 0-1.4 1.4v22.315a1.4 1.4 0 0 0 1.4 1.39zm1.394-22.311h47.421v19.526H19.526z"/><path data-name="Path 138" d="M29.289 18.847l-4.4-7.034a1.394 1.394 0 0 0-2.574.74v12.552h2.789v-7.688l4.4 7.034a1.4 1.4 0 0 0 2.577-.739V11.158h-2.792z"/><path data-name="Path 139" d="M37.657 19.526h4.184v-2.789h-4.184v-2.79h4.184v-2.789h-5.578a1.4 1.4 0 0 0-1.4 1.395V23.71a1.4 1.4 0 0 0 1.4 1.395h5.579v-2.788h-4.185z"/><path data-name="Path 140" d="M50.21 16.469l-.1-.25a1.4 1.4 0 0 0-2.591 0l-.1.251v-5.312h-2.788V23.71a1.4 1.4 0 0 0 2.69.519l1.494-3.738 1.494 3.736a1.4 1.4 0 0 0 1.3.877 1.371 1.371 0 0 0 .264-.025 1.4 1.4 0 0 0 1.131-1.37V11.158H50.21z"/><path data-name="Path 141" d="M55.788 15.342a4.189 4.189 0 0 0 4.184 4.184 1.4 1.4 0 1 1 .075 2.789h-4.259v2.789h4.184a4.184 4.184 0 0 0 0-8.368 1.4 1.4 0 0 1 0-2.789h4.184v-2.789h-4.187a4.19 4.19 0 0 0-4.181 4.184z"/><path data-name="Path 142" d="M77.353 30.841a1.4 1.4 0 0 0-1.444.095l-.6.416V1.395a1.4 1.4 0 0 0-1.389-1.4H12.552a1.4 1.4 0 0 0-1.4 1.4v6.973H1.39a1.4 1.4 0 0 0-1.4 1.4v69.737a6.981 6.981 0 0 0 6.974 6.974h58.577a9.773 9.773 0 0 0 9.763-9.763v-4.859l.6.417a1.4 1.4 0 0 0 2.186-1.144V32.078a1.4 1.4 0 0 0-.737-1.237zM11.153 79.5a4.184 4.184 0 1 1-8.368 0V11.158h8.368zm61.367-2.789a6.981 6.981 0 0 1-6.974 6.974H12.512a6.9 6.9 0 0 0 1.431-4.185V2.789h58.578V33.3l-10.2 7.142h-9.325a8.378 8.378 0 0 0-8.368 8.368v5.579a8.373 8.373 0 0 0 5.579 7.88v10.256a5.579 5.579 0 1 0 11.158 0v-9.763h.955l10.2 7.142zm-2.788-38.048v25.884l-5.579-3.906V42.568zm-16.736 21.31a5.584 5.584 0 0 1-5.579-5.579v-5.577a5.584 5.584 0 0 1 5.579-5.579h8.368v16.736zm5.579 2.789v9.763a2.79 2.79 0 1 1-5.579 0v-9.763zM72.521 66.5V36.709l2.789-1.953v33.7z"/><path data-name="Rectangle 185" d="M80.893 47.42h5.579v2.789h-5.579z"/><path data-name="Rectangle 186" d="M79.894 42.253l4.185-4.185 1.972 1.973-4.185 4.184z"/><path data-name="Rectangle 187" d="M79.892 55.383l1.972-1.972 4.185 4.185-1.972 1.972z"/><path data-name="Path 143" d="M18.132 61.367h22.315a1.4 1.4 0 0 0 1.39-1.394v-25.1a1.4 1.4 0 0 0-1.39-1.4H18.132a1.4 1.4 0 0 0-1.4 1.395v25.105a1.4 1.4 0 0 0 1.4 1.394zm1.4-25.1h19.525v22.306H19.531z"/><path data-name="Rectangle 188" d="M16.737 64.157h30.684v2.789H16.737z"/><path data-name="Rectangle 189" d="M16.737 69.735h30.684v2.789H16.737z"/><path data-name="Rectangle 190" d="M16.737 75.314h30.684v2.789H16.737z"/></g></svg>