<svg xmlns="http://www.w3.org/2000/svg" width="86.5" height="86.511" viewBox="0 0 86.5 86.511"><g data-name="Group 19" fill="#333"><path data-name="Path 197" d="M57.2 27.909a1.4 1.4 0 1 0 1.4-1.4 1.4 1.4 0 0 0-1.4 1.4z" opacity=".6"/><path data-name="Path 198" d="M48.834 19.533a1.4 1.4 0 1 0 1.4-1.4 1.4 1.4 0 0 0-1.403 1.403z" opacity=".6"/><path data-name="Rectangle 206" opacity=".6" d="M30.693 40.46h2.79v16.742h-2.79z"/><path data-name="Path 199" d="M39.065 43.253h8.377v6.213a22.187 22.187 0 0 1 27.9-4.586V19.423a9.7 9.7 0 0 1-4.442-1.844l-8.538 8.528a4.134 4.134 0 0 1 .42 1.793 4.186 4.186 0 1 1-8.371 0 4.132 4.132 0 0 1 .419-1.794l-2.811-2.811a4.046 4.046 0 0 1-3.587 0l-7 7a4.132 4.132 0 0 1 .42 1.793 4.226 4.226 0 1 1-2.391-3.766l7-7a4.1 4.1 0 0 1-.42-1.793 4.186 4.186 0 1 1 7.952 1.794l2.811 2.811a4.039 4.039 0 0 1 3.587 0l8.533-8.533a9.746 9.746 0 0 1-1.545-3.044H2.79v50.226h39.139a22.19 22.19 0 0 1 .336-2.79h-3.2zm-27.9-27.9h19.532v2.79H11.161zm0 5.58h19.532v2.79H11.161zm0 5.581h19.532v2.79H11.161zm0 5.581h19.532v2.79H11.161zm-5.58-16.742h2.79v2.79h-2.79zm0 5.58h2.79v2.79h-2.79zm0 5.581h2.79v2.79h-2.79zm0 5.581h2.79v2.79h-2.79zm8.371 27.9H5.585V46.041h8.371zm11.161 0h-8.371V48.832h8.371zm11.161 0h-8.371V37.67h8.371z" opacity=".2"/><path data-name="Rectangle 207" opacity=".6" d="M8.371 48.831h2.79v8.371h-2.79z"/><path data-name="Rectangle 208" opacity=".6" d="M19.532 51.622h2.79v5.581h-2.79z"/><path data-name="Path 201" d="M36.265 32.09a1.4 1.4 0 1 0 1.4-1.4 1.4 1.4 0 0 0-1.4 1.4z" opacity=".6"/><path data-name="Path 203" d="M41.855 57.201h1.131a22.125 22.125 0 0 1 1.659-3.806v-7.354h-2.79z" opacity=".6"/><path data-name="Path 204" d="M72.27 75.532a13.9 13.9 0 0 1-19.4-3.215l-4.859 2.806a19.52 19.52 0 0 0 16.172 8.587h-.005a19.522 19.522 0 0 0 16.167-8.588l-4.859-2.806a13.9 13.9 0 0 1-3.216 3.216z" opacity=".6"/><path data-name="Path 206" d="M64.177 58.597a5.581 5.581 0 1 0 5.581 5.581 5.581 5.581 0 0 0-5.581-5.581z" opacity=".2"/><path data-name="Path 207" d="M65.573 44.717v5.584a13.924 13.924 0 0 1 11.313 19.6l4.84 2.8a19.465 19.465 0 0 0-16.153-27.984z" opacity=".2"/><path data-name="Path 208" d="M78.126 46.781V19.422a9.761 9.761 0 1 0-11.161-9.655H-.003v55.807h41.926a22.308 22.308 0 1 0 36.2-18.793zm-1.392-43.99a6.976 6.976 0 1 1-6.976 6.976 6.977 6.977 0 0 1 6.976-6.976zm-34.8 59.992H2.795v-50.23h64.589a9.746 9.746 0 0 0 1.545 3.044l-8.533 8.533a4.039 4.039 0 0 0-3.587 0l-2.811-2.811a4.18 4.18 0 1 0-7.952-1.794 4.1 4.1 0 0 0 .42 1.793l-7 7a4.234 4.234 0 1 0 1.971 1.973l7-7a4.046 4.046 0 0 0 3.587 0l2.811 2.811a4.132 4.132 0 0 0-.419 1.794 4.186 4.186 0 1 0 8.371 0 4.134 4.134 0 0 0-.42-1.793l8.538-8.528a9.7 9.7 0 0 0 4.442 1.844v25.455a22.187 22.187 0 0 0-27.9 4.586v-6.207H39.07v16.74h3.2a22.19 22.19 0 0 0-.341 2.79zm18.071-34.874a1.4 1.4 0 1 1-1.4-1.4 1.4 1.4 0 0 1 1.395 1.4zm-8.366-8.376a1.4 1.4 0 0 1-2.8 0 1.4 1.4 0 1 1 2.8 0zM39.07 32.09a1.4 1.4 0 1 1-1.4-1.4 1.4 1.4 0 0 1 1.395 1.4zm25.113 43.25a11.161 11.161 0 1 1 11.162-11.162A11.16 11.16 0 0 1 64.183 75.34zM44.65 53.395a22.125 22.125 0 0 0-1.659 3.806H41.86v-11.16h2.79zm10.9-6.738a19.473 19.473 0 0 1 7.238-1.94v5.584a13.922 13.922 0 0 0-11.313 19.6l-4.84 2.8a19.465 19.465 0 0 1 8.909-26.048zm8.633 37.054h.005a19.52 19.52 0 0 1-16.172-8.587l4.859-2.806a13.906 13.906 0 0 0 22.616 0l4.859 2.806a19.522 19.522 0 0 1-16.173 8.587zm19.489-18.247a19.472 19.472 0 0 1-1.94 7.237l-4.84-2.8a13.924 13.924 0 0 0-11.313-19.6v-5.584a19.466 19.466 0 0 1 18.087 20.747z"/><path data-name="Path 210" d="M64.177 55.807a8.371 8.371 0 1 0 8.371 8.371 8.371 8.371 0 0 0-8.371-8.371zm0 13.952a5.581 5.581 0 1 1 5.581-5.581 5.58 5.58 0 0 1-5.581 5.581z"/><path data-name="Rectangle 209" d="M5.581 15.348h2.79v2.79h-2.79z"/><path data-name="Rectangle 210" d="M11.161 15.348h19.532v2.79H11.161z"/><path data-name="Rectangle 211" d="M5.581 20.928h2.79v2.79h-2.79z"/><path data-name="Rectangle 212" d="M11.161 20.928h19.532v2.79H11.161z"/><path data-name="Rectangle 213" d="M5.581 26.509h2.79v2.79h-2.79z"/><path data-name="Rectangle 214" d="M11.161 26.509h19.532v2.79H11.161z"/><path data-name="Rectangle 215" d="M5.581 32.09h2.79v2.79h-2.79z"/><path data-name="Rectangle 216" d="M11.161 32.09h19.532v2.79H11.161z"/><path data-name="Path 211" d="M5.581 59.993h8.371V46.041H5.581zm2.79-11.162h2.79v8.371h-2.79z"/><path data-name="Path 212" d="M16.742 59.993h8.371V48.832h-8.371zm2.79-8.371h2.79v5.581h-2.79z"/><path data-name="Path 213" d="M27.903 59.993h8.371V37.67h-8.371zm2.79-19.533h2.79v16.742h-2.79z"/></g></svg>