<svg width="20" height="20" viewBox="0 0 20 20" fill="none" xmlns="http://www.w3.org/2000/svg"><path d="M19.304 16.302l-2.676 2.654c-.395.406-.919.543-1.428.543-2.255-.067-4.387-1.175-6.137-2.312-2.872-2.09-5.508-4.68-7.162-7.812C1.267 8.062.522 6.386.594 4.92c.006-.551.155-1.093.543-1.448L3.813.8c.555-.473 1.093-.31 1.448.241l2.153 4.082a1.185 1.185 0 0 1-.242 1.347l-.986.986a.484.484 0 0 0-.1.281c.378 1.463 1.523 2.812 2.535 3.74 1.011.928 2.099 2.186 3.51 2.484.175.048.389.065.514-.05l1.146-1.167c.396-.3.966-.446 1.388-.201h.02l3.883 2.292c.57.358.63 1.048.222 1.468z" fill="#1B3990"/></svg>