<svg xmlns="http://www.w3.org/2000/svg" width="86.474" height="86.508" viewBox="0 0 86.474 86.508"><g data-name="Group 16" fill="#fff"><path data-name="Path 144" d="M41.843 12.552a9.778 9.778 0 0 0-8.368-9.664v1.3a9.778 9.778 0 0 0 8.369 9.668z" opacity=".2"/><path data-name="Path 145" d="M72.525 22.311a9.777 9.777 0 0 0-8.368-9.664v1.3a9.777 9.777 0 0 0 8.368 9.664z" opacity=".2"/><path data-name="Path 146" d="M23.71 61.363a4.189 4.189 0 0 1 4.184-4.184h5.579a1.4 1.4 0 0 0 1.395-1.4v-4.181a1.4 1.4 0 0 0-1.395-1.391 4.188 4.188 0 0 1-4.184-4.184v-3.025a1.414 1.414 0 0 0-.409-.986l-5.637-5.635a27.788 27.788 0 0 0-7.9 19.413 27.77 27.77 0 0 0 .918 6.974h6.055a1.4 1.4 0 0 0 1.394-1.401z" opacity=".6"/><path data-name="Path 147" d="M22.315 13.951v-1.3a9.779 9.779 0 0 0-8.368 9.664v1.3a9.777 9.777 0 0 0 8.368-9.664z" opacity=".6"/><path data-name="Path 148" d="M53 4.188v-1.3a9.778 9.778 0 0 0-8.368 9.664v1.3A9.777 9.777 0 0 0 53 4.188z" opacity=".6"/><path data-name="Path 149" d="M2.789 12.651v1.3a9.777 9.777 0 0 0 8.368 9.664v-1.3a9.779 9.779 0 0 0-8.368-9.664z" opacity=".2"/><path data-name="Path 150" d="M41 71.549a2.094 2.094 0 0 0-2.921.427 4.888 4.888 0 0 1-6.834.975 2.113 2.113 0 0 0-2.973.3l-3.043 3.8a27.742 27.742 0 0 0 18.009 6.632v-7.671A5.611 5.611 0 0 0 41 71.549z" opacity=".6"/><path data-name="Path 152" d="M75.315 22.311v1.3a9.777 9.777 0 0 0 8.368-9.664v-1.3a9.779 9.779 0 0 0-8.368 9.664z" opacity=".6"/><path data-name="Path 153" d="M50.213 74.254v-.675a7.26 7.26 0 0 1 2.142-5.172 7.024 7.024 0 0 0 0-9.9 4.494 4.494 0 0 0-3.2-1.324h-1.734a5.579 5.579 0 1 1 0-11.158 2.791 2.791 0 0 0 2.789-2.789v-4.184a1.4 1.4 0 0 0-1.4-1.4 4.188 4.188 0 0 1-4.184-4.184V27.96c-.465-.024-.924-.071-1.4-.071a27.758 27.758 0 0 0-17.951 6.576l5.568 5.572a4.154 4.154 0 0 1 1.226 2.958v3.021a1.4 1.4 0 0 0 1.4 1.4 4.19 4.19 0 0 1 4.184 4.184v4.188a4.189 4.189 0 0 1-4.184 4.184H27.89a1.4 1.4 0 0 0-1.4 1.4 4.189 4.189 0 0 1-4.181 4.184h-5.18a27.941 27.941 0 0 0 6.045 9.582l2.9-3.63a4.86 4.86 0 0 1 6.741-.855l.039.031a2.122 2.122 0 0 0 2.976-.387 4.886 4.886 0 0 1 6.834-.975 8.41 8.41 0 0 1 3.347 6.7v7.53a27.629 27.629 0 0 0 8.279-2.162l-1.945-1.956a7.252 7.252 0 0 1-2.132-5.18z" opacity=".2"/><path data-name="Path 154" d="M47.421 28.243v5.23a1.4 1.4 0 0 0 1.395 1.395A4.19 4.19 0 0 1 53 39.052v4.184a5.584 5.584 0 0 1-5.58 5.577 2.79 2.79 0 1 0 0 5.579h1.736a7.269 7.269 0 0 1 5.169 2.141 9.815 9.815 0 0 1 0 13.849 4.49 4.49 0 0 0-1.325 3.2v.675a4.477 4.477 0 0 0 1.327 3.2l2.606 2.608a27.853 27.853 0 0 0-9.512-51.819z" opacity=".6"/><path data-name="Path 155" d="M85.081 9.763a12.558 12.558 0 0 0-11.157 6.828 12.557 12.557 0 0 0-11.158-6.828 1.4 1.4 0 0 0-1.4 1.393v2.791a12.565 12.565 0 0 0 11.158 12.47v8.025A36.242 36.242 0 0 0 44.63 19.561v-2.907a12.566 12.566 0 0 0 11.157-12.47V1.398a1.4 1.4 0 0 0-1.393-1.4 12.557 12.557 0 0 0-11.158 6.828A12.557 12.557 0 0 0 32.078-.002a1.4 1.4 0 0 0-1.4 1.393v2.791a12.564 12.564 0 0 0 11.158 12.47v2.907A36.236 36.236 0 0 0 13.942 34.44v-8.025a12.566 12.566 0 0 0 11.153-12.47v-2.787a1.4 1.4 0 0 0-1.393-1.4 12.557 12.557 0 0 0-11.159 6.833A12.557 12.557 0 0 0 1.391 9.763a1.4 1.4 0 0 0-1.4 1.393v2.791a12.565 12.565 0 0 0 11.158 12.47v12.488a36.03 36.03 0 0 0-4.184 16.883 1.393 1.393 0 0 0 1.393 1.395h4.221a30.68 30.68 0 0 0 61.3 0h4.212a1.393 1.393 0 0 0 1.4-1.388v-.007a36.028 36.028 0 0 0-4.184-16.883V26.417a12.566 12.566 0 0 0 11.158-12.47v-2.789a1.4 1.4 0 0 0-1.384-1.395zm-40.449 2.789A9.778 9.778 0 0 1 53 2.888v1.3a9.777 9.777 0 0 1-8.368 9.664zm-30.685 9.763a9.779 9.779 0 0 1 8.368-9.664v1.3a9.777 9.777 0 0 1-8.368 9.664zm-2.79 1.3a9.777 9.777 0 0 1-8.368-9.664v-1.3a9.779 9.779 0 0 1 8.368 9.664zm53-9.668v-1.3a9.777 9.777 0 0 1 8.368 9.664v1.3a9.777 9.777 0 0 1-8.368-9.664zM33.473 4.184v-1.3a9.778 9.778 0 0 1 8.368 9.664v1.3a9.778 9.778 0 0 1-8.368-9.664zm-18.131 51.6a27.788 27.788 0 0 1 7.9-19.413l5.637 5.635a1.414 1.414 0 0 1 .409.986v3.029a4.188 4.188 0 0 0 4.184 4.184 1.4 1.4 0 0 1 1.395 1.391v4.184a1.4 1.4 0 0 1-1.395 1.4h-5.579a4.189 4.189 0 0 0-4.184 4.184 1.4 1.4 0 0 1-1.4 1.4h-6.055a27.77 27.77 0 0 1-.911-6.98zm27.89 27.9a27.742 27.742 0 0 1-18.009-6.632l3.043-3.8a2.113 2.113 0 0 1 2.973-.3 4.888 4.888 0 0 0 6.834-.975 2.094 2.094 0 0 1 2.921-.427 5.611 5.611 0 0 1 2.232 4.463zm2.789-.141v-7.53a8.41 8.41 0 0 0-3.347-6.7 4.886 4.886 0 0 0-6.834.975 2.122 2.122 0 0 1-2.976.387l-.039-.031a4.86 4.86 0 0 0-6.741.855l-2.9 3.63a27.941 27.941 0 0 1-6.045-9.582h5.18a4.189 4.189 0 0 0 4.181-4.184 1.4 1.4 0 0 1 1.4-1.4h5.579a4.189 4.189 0 0 0 4.184-4.184v-4.181a4.19 4.19 0 0 0-4.184-4.184 1.4 1.4 0 0 1-1.4-1.4v-3.016a4.154 4.154 0 0 0-1.226-2.958l-5.568-5.572a27.758 27.758 0 0 1 17.951-6.576c.471 0 .93.047 1.4.071v5.508a4.188 4.188 0 0 0 4.184 4.184 1.4 1.4 0 0 1 1.4 1.4v4.184a2.791 2.791 0 0 1-2.789 2.789 5.579 5.579 0 1 0 0 11.158h1.734a4.494 4.494 0 0 1 3.2 1.324 7.024 7.024 0 0 1 0 9.9 7.26 7.26 0 0 0-2.142 5.172v.675a7.252 7.252 0 0 0 2.142 5.17l1.945 1.956a27.629 27.629 0 0 1-8.289 2.159zm24.8-23.615a27.853 27.853 0 0 1-13.889 20.135l-2.606-2.608a4.477 4.477 0 0 1-1.327-3.2v-.675a4.49 4.49 0 0 1 1.325-3.2 9.815 9.815 0 0 0 0-13.849 7.269 7.269 0 0 0-5.169-2.141h-1.736a2.79 2.79 0 1 1 0-5.579 5.584 5.584 0 0 0 5.58-5.577V39.05a4.19 4.19 0 0 0-4.184-4.184 1.4 1.4 0 0 1-1.395-1.395v-5.23a27.853 27.853 0 0 1 23.402 31.686zm5.857-5.533h-2.794a30.68 30.68 0 0 0-61.3 0H9.791a33.473 33.473 0 0 1 66.887 0zm7-40.447a9.777 9.777 0 0 1-8.368 9.664v-1.3a9.779 9.779 0 0 1 8.368-9.664z"/></g></svg>