<svg xmlns="http://www.w3.org/2000/svg" width="86.5" height="86.5" viewBox="0 0 86.5 86.5"><g data-name="Group 17" fill="#1b3990"><path data-name="Path 157" d="M75.337 23.716a2.79 2.79 0 1 0-2.789-2.79 2.79 2.79 0 0 0 2.789 2.79z" opacity=".6"/><path data-name="Rectangle 191" opacity=".2" d="M32.087 65.571h5.581v2.79h-5.581z"/><path data-name="Path 158" d="M36.222 35.401a2.788 2.788 0 1 0-5.477-1.047l3.262 3.262a2.788 2.788 0 0 0 2.215-2.215z" opacity=".6"/><path data-name="Rectangle 192" opacity=".6" d="M6.975 59.99h30.693v2.79H6.975z"/><path data-name="Rectangle 193" opacity=".2" d="M32.084 76.732h5.581v2.79h-5.581z"/><path data-name="Path 159" d="M75.337 37.668a2.79 2.79 0 1 0-2.789-2.79 2.79 2.79 0 0 0 2.789 2.79z" opacity=".6"/><path data-name="Rectangle 194" opacity=".2" d="M6.975 71.151h5.581v2.79H6.975z"/><path data-name="Path 160" d="M30.692 47.435h9.188l-9.188-9.188z" opacity=".6"/><path data-name="Rectangle 195" opacity=".2" d="M6.975 65.571h5.581v2.79H6.975z"/><path data-name="Rectangle 196" opacity=".2" d="M6.975 76.732h5.581v2.79H6.975z"/><path data-name="Path 161" d="M61.384 23.717a2.79 2.79 0 1 0-2.791-2.79 2.794 2.794 0 0 0 2.791 2.79z" opacity=".6"/><path data-name="Rectangle 197" opacity=".2" d="M32.086 71.151h5.583v2.79h-5.583z"/><path data-name="Rectangle 198" opacity=".2" d="M15.345 71.151h5.581v2.79h-5.581z"/><path data-name="Path 163" d="M16.741 33.483H28.1a5.564 5.564 0 1 1 8.045 6.27l8.088 8.089a1.383 1.383 0 0 1 .41.988v5.58h39.065V13.951H16.741zm58.272 19.028a1.4 1.4 0 0 1-1.071.5h-.074a1.4 1.4 0 0 1-1.086-.619l-2.791-4.185 2.322-1.547 1.752 2.636 5.78-6.94 2.145 1.784zm-5.257-31.585a5.581 5.581 0 1 1 5.581 5.581 5.581 5.581 0 0 1-5.581-5.581zm0 13.952a5.581 5.581 0 1 1 5.581 5.581 5.581 5.581 0 0 1-5.581-5.581zm-8.37-19.532a5.581 5.581 0 1 1-5.582 5.581 5.585 5.585 0 0 1 5.58-5.581zm0 13.952a5.581 5.581 0 1 1-5.582 5.581 5.585 5.585 0 0 1 5.58-5.581zM56.965 46.66l1.754 2.636 5.78-6.94 2.142 1.784-6.975 8.371a1.405 1.405 0 0 1-1.072.5h-.073a1.4 1.4 0 0 1-1.088-.619l-2.79-4.185zm-9.531-31.314a5.581 5.581 0 1 1-5.58 5.581 5.584 5.584 0 0 1 5.58-5.581zm0 13.952a5.581 5.581 0 1 1-5.58 5.581 5.584 5.584 0 0 1 5.58-5.581zm-13.95-13.952a5.581 5.581 0 1 1-5.581 5.581 5.584 5.584 0 0 1 5.581-5.581z" opacity=".2"/><path data-name="Path 164" d="M33.484 23.717a2.79 2.79 0 1 0-2.79-2.79 2.792 2.792 0 0 0 2.79 2.79z" opacity=".6"/><path data-name="Rectangle 199" opacity=".2" d="M15.345 76.731h5.581v2.79h-5.581z"/><path data-name="Path 165" d="M83.707 5.581h-4.185v2.79h-2.79v-2.79H65.571v2.79h-2.79v-2.79H51.62v2.79h-2.79v-2.79H37.668v2.79h-2.79v-2.79H23.717v2.79h-2.79v-2.79h-4.185v5.577h66.965z" opacity=".6"/><path data-name="Path 166" d="M47.434 23.717a2.79 2.79 0 1 0-2.789-2.79 2.794 2.794 0 0 0 2.789 2.79z" opacity=".6"/><path data-name="Rectangle 200" opacity=".2" d="M23.716 71.151h5.581v2.79h-5.581z"/><path data-name="Rectangle 201" opacity=".2" d="M23.716 76.731h5.581v2.79h-5.581z"/><path data-name="Path 167" d="M61.384 37.669a2.79 2.79 0 1 0-2.791-2.79 2.794 2.794 0 0 0 2.791 2.79z" opacity=".6"/><path data-name="Rectangle 202" opacity=".2" d="M15.345 65.571h5.581v2.79h-5.581z"/><path data-name="Rectangle 203" opacity=".2" d="M23.716 65.571h5.581v2.79h-5.581z"/><path data-name="Path 168" d="M47.434 37.669a2.79 2.79 0 1 0-2.789-2.79 2.794 2.794 0 0 0 2.789 2.79z" opacity=".6"/><path data-name="Path 169" d="M4.184 58.6v22.317a1.4 1.4 0 0 0 1.4 1.4h33.479a1.4 1.4 0 0 0 1.4-1.4V58.6a1.4 1.4 0 0 0-1.4-1.4H5.584a1.4 1.4 0 0 0-1.4 1.4zm16.743 20.921h-5.582v-2.79h5.582zm0-5.58h-5.582v-2.79h5.582zm0-5.58h-5.582v-2.79h5.582zm8.371 11.16h-5.582v-2.79h5.582zm0-5.58h-5.582v-2.79h5.582zm0-5.58h-5.582v-2.79h5.582zm8.368 11.161h-5.582v-2.79h5.582zm0-5.581h-5.582v-2.79h5.581zm0-5.58h-5.582v-2.79h5.581zM6.973 59.99h30.692v2.79H6.973zm0 5.581h5.58v2.79h-5.58zm0 5.58h5.58v2.79h-5.58zm0 5.581h5.58v2.79h-5.58z"/><path data-name="Path 170" d="M85.1 2.79h-5.578V0h-2.791v2.79H65.57V0h-2.786v2.79H51.622V0h-2.79v2.79H37.671V0h-2.79v2.79H23.719V0H20.93v2.79h-5.582a1.4 1.4 0 0 0-1.4 1.4v29.3H1.402a1.4 1.4 0 0 0-1.4 1.4V85.1a1.4 1.4 0 0 0 1.4 1.4h41.85a1.4 1.4 0 0 0 1.4-1.4V57.2h40.452a1.4 1.4 0 0 0 1.4-1.4V4.185A1.4 1.4 0 0 0 85.1 2.79zM16.741 5.581h4.186v2.79h2.789v-2.79h11.161v2.79h2.79v-2.79h11.162v2.79h2.79v-2.79h11.165v2.79h2.789v-2.79h11.161v2.79h2.791v-2.79h4.185v5.577H16.744zm25.113 78.127H2.784V36.273h25.11V48.83a1.4 1.4 0 0 0 1.4 1.4h12.555zM39.88 47.435h-9.188v-9.188zm-9.135-13.081a2.788 2.788 0 1 1 3.262 3.262zM83.708 54.41H44.643v-5.58a1.383 1.383 0 0 0-.41-.988l-8.088-8.089a5.564 5.564 0 1 0-8.045-6.27H16.741V13.951h66.967z"/><path data-name="Path 171" d="M33.484 26.508a5.581 5.581 0 1 0-5.581-5.581 5.581 5.581 0 0 0 5.581 5.581zm0-8.371a2.79 2.79 0 1 1-2.79 2.79 2.79 2.79 0 0 1 2.79-2.79z"/><path data-name="Path 172" d="M47.434 26.508a5.581 5.581 0 1 0-5.58-5.581 5.581 5.581 0 0 0 5.58 5.581zm0-8.371a2.79 2.79 0 1 1-2.789 2.79 2.791 2.791 0 0 1 2.789-2.79z"/><path data-name="Path 173" d="M61.384 26.508a5.581 5.581 0 1 0-5.582-5.581 5.581 5.581 0 0 0 5.582 5.581zm0-8.371a2.79 2.79 0 1 1-2.791 2.79 2.79 2.79 0 0 1 2.791-2.79z"/><path data-name="Path 174" d="M75.337 26.507a5.581 5.581 0 1 0-5.581-5.581 5.588 5.588 0 0 0 5.581 5.581zm0-8.371a2.79 2.79 0 1 1-2.789 2.79 2.79 2.79 0 0 1 2.789-2.79z"/><path data-name="Path 175" d="M47.434 40.458a5.581 5.581 0 1 0-5.58-5.581 5.581 5.581 0 0 0 5.58 5.581zm0-8.371a2.79 2.79 0 1 1-2.789 2.79 2.791 2.791 0 0 1 2.789-2.788z"/><path data-name="Path 176" d="M61.384 40.458a5.581 5.581 0 1 0-5.582-5.581 5.581 5.581 0 0 0 5.582 5.581zm0-8.371a2.79 2.79 0 1 1-2.791 2.79 2.79 2.79 0 0 1 2.791-2.788z"/><path data-name="Path 177" d="M75.337 40.458a5.581 5.581 0 1 0-5.581-5.581 5.588 5.588 0 0 0 5.581 5.581zm0-8.371a2.79 2.79 0 1 1-2.789 2.79 2.79 2.79 0 0 1 2.789-2.789z"/><path data-name="Path 178" d="M74.065 49.296l-1.752-2.636-2.322 1.547 2.791 4.185a1.4 1.4 0 0 0 1.086.619h.074a1.4 1.4 0 0 0 1.071-.5l6.977-8.371-2.145-1.784z"/><path data-name="Path 179" d="M58.521 53.011h.073a1.405 1.405 0 0 0 1.072-.5l6.975-8.371-2.142-1.784-5.78 6.94-1.754-2.636-2.322 1.547 2.79 4.185a1.4 1.4 0 0 0 1.088.619z"/></g></svg>