<svg xmlns="http://www.w3.org/2000/svg" width="87.596" height="87.599" viewBox="0 0 87.596 87.599"><g data-name="Group 18" fill="#fad839"><path data-name="Path 180" d="M11.303 73.573a2.826 2.826 0 1 0 5.651-.107h-5.651z" opacity=".2"/><path data-name="Path 181" d="M19.765 73.607a5.639 5.639 0 0 1-11.274 0 7.076 7.076 0 0 0-5.665 6.923v4.238h2.825v-5.647h2.83v5.651h11.3v-5.651h2.825v5.651h2.826v-4.238a7.075 7.075 0 0 0-5.667-6.927z" opacity=".6"/><path data-name="Path 182" d="M14.233 70.743a5.651 5.651 0 0 0 5.544-5.757v-3.032a5.651 5.651 0 0 0-11.3.212v3.033a5.652 5.652 0 0 0 5.756 5.544z" opacity=".2"/><path data-name="Path 183" d="M32.496 26.842v4.238h2.825v-5.651h2.829v5.651h11.3v-5.651h2.825v5.652h2.826v-4.239a7.076 7.076 0 0 0-5.666-6.923 5.639 5.639 0 0 1-11.274 0 7.075 7.075 0 0 0-5.665 6.923z" opacity=".6"/><path data-name="Path 184" d="M43.903 17.055a5.651 5.651 0 0 0 5.544-5.757V8.263a5.651 5.651 0 1 0-11.3.212v3.036a5.652 5.652 0 0 0 5.756 5.544z" opacity=".2"/><path data-name="Path 185" d="M40.973 19.885a2.826 2.826 0 1 0 5.651-.107h-5.651a1.909 1.909 0 0 0 0 .107z" opacity=".2"/><path data-name="Path 186" d="M31.081 56.511h25.431V42.383H31.081zm19.779-2.825H36.732V50.86H50.86zm-16.954-8.477h19.78v2.826h-19.78z" opacity=".6"/><path data-name="Path 187" d="M79.104 73.607a5.639 5.639 0 0 1-11.274 0 7.075 7.075 0 0 0-5.665 6.923v4.238h2.825v-5.647h2.829v5.651h11.3v-5.651h2.825v5.651h2.826v-4.238a7.075 7.075 0 0 0-5.666-6.927z" opacity=".6"/><path data-name="Path 188" d="M70.642 73.573a2.826 2.826 0 1 0 5.651-.107h-5.651a1.909 1.909 0 0 0 0 .107z" opacity=".2"/><path data-name="Path 189" d="M73.573 70.743a5.651 5.651 0 0 0 5.543-5.757v-3.032a5.651 5.651 0 0 0-11.3.212v3.033a5.652 5.652 0 0 0 5.757 5.544z" opacity=".2"/><path data-name="Path 190" d="M20.26 70.827a8.435 8.435 0 0 0 2.345-5.841v-2.823a8.477 8.477 0 0 0-16.954 0v2.826A8.438 8.438 0 0 0 8 70.83a9.9 9.9 0 0 0-8 9.7v5.659a1.412 1.412 0 0 0 1.411 1.413h25.433a1.411 1.411 0 0 0 1.413-1.411v-5.658a9.9 9.9 0 0 0-7.997-9.706zM8.481 64.986v-2.82a5.651 5.651 0 0 1 11.3-.212v3.032a5.651 5.651 0 1 1-11.3.213q-.005-.107 0-.213zm8.477 8.48a2.826 2.826 0 1 1-5.651.107v-.107zm5.651 11.3v-5.645h-2.828v5.651h-11.3v-5.651H5.655v5.651H2.83v-4.238a7.076 7.076 0 0 1 5.665-6.923 5.639 5.639 0 0 0 11.274 0 7.075 7.075 0 0 1 5.665 6.923v4.238z"/><path data-name="Path 191" d="M79.599 70.827a8.435 8.435 0 0 0 2.345-5.841v-2.823a8.477 8.477 0 1 0-16.954 0v2.823a8.438 8.438 0 0 0 2.349 5.841 9.9 9.9 0 0 0-8 9.7v5.659a1.412 1.412 0 0 0 1.411 1.413h25.431a1.411 1.411 0 0 0 1.413-1.411V80.53a9.9 9.9 0 0 0-7.995-9.703zm-11.783-5.841v-2.82a5.651 5.651 0 0 1 11.3-.212v3.032a5.651 5.651 0 1 1-11.3.213q-.002-.107 0-.213zm8.477 8.48a2.826 2.826 0 1 1-5.651.107v-.107zm5.651 11.3v-5.645h-2.825v5.651h-11.3v-5.651H64.99v5.651h-2.825v-4.238a7.075 7.075 0 0 1 5.665-6.923 5.639 5.639 0 0 0 11.274 0 7.075 7.075 0 0 1 5.665 6.923v4.238z"/><path data-name="Path 192" d="M29.67 26.842v5.656a1.412 1.412 0 0 0 1.411 1.413h25.433a1.411 1.411 0 0 0 1.413-1.411v-5.658a9.9 9.9 0 0 0-8-9.7 8.435 8.435 0 0 0 2.348-5.844V8.475a8.477 8.477 0 0 0-16.954 0v2.823a8.439 8.439 0 0 0 2.349 5.841 9.9 9.9 0 0 0-8 9.703zm8.477-15.544V8.475a5.651 5.651 0 1 1 11.3-.212v3.035a5.651 5.651 0 1 1-11.3.213v-.213zm8.477 8.48a2.826 2.826 0 1 1-5.651.107v-.107zm-8.463.141a5.639 5.639 0 0 0 11.274 0 7.076 7.076 0 0 1 5.666 6.923v4.239h-2.826v-5.652H49.45v5.651h-11.3v-5.651h-2.829v5.651h-2.825v-4.238a7.075 7.075 0 0 1 5.665-6.921z"/><path data-name="Path 193" d="M31.591 75.443l-1.019 2.635a36.863 36.863 0 0 0 26.45 0l-1.019-2.635a34.212 34.212 0 0 1-24.412 0z"/><path data-name="Path 194" d="M77.705 43.796a33.974 33.974 0 0 1-.983 8.139l2.744.677A36.786 36.786 0 0 0 55.552 8.984l-.9 2.677a33.888 33.888 0 0 1 23.053 32.135z"/><path data-name="Path 195" d="M10.873 51.936a33.96 33.96 0 0 1 22.074-40.275l-.9-2.677A36.791 36.791 0 0 0 8.128 52.611z"/><path data-name="Path 196" d="M59.34 57.921V40.97a1.412 1.412 0 0 0-1.411-1.413H29.671a1.412 1.412 0 0 0-1.413 1.411v16.953a1.412 1.412 0 0 0 1.411 1.413h28.259a1.411 1.411 0 0 0 1.413-1.411zm-2.826-1.413H31.081V42.383h25.431z"/><path data-name="Rectangle 204" d="M33.908 45.209h19.78v2.826h-19.78z"/><path data-name="Rectangle 205" d="M36.734 50.86h14.128v2.826H36.734z"/></g></svg>