<svg xmlns="http://www.w3.org/2000/svg" width="86.472" height="86.472" viewBox="0 0 86.472 86.472"><g data-name="Group 13" fill="#fff"><path data-name="Rectangle 173" opacity=".6" d="M16.738 36.261h8.37v5.579h-8.37z"/><path data-name="Path 108" d="M20.924 31.261l-2.215 2.212h4.427z" opacity=".6"/><path data-name="Path 109" d="M44.631 25.109H8.369v22.306h36.263zm-5.584 18.127a1.4 1.4 0 0 1-1.39 1.4H15.34a1.394 1.394 0 0 1-1.393-1.4v-8.368h.009a1.378 1.378 0 0 1 .4-.986l5.579-5.579a1.392 1.392 0 0 1 1.97 0l4.592 4.591 4.6-4.591a1.392 1.392 0 0 1 1.97 0l5.579 5.579h-.013a1.387 1.387 0 0 1 .4.986h.013z" opacity=".2"/><path data-name="Rectangle 174" opacity=".6" d="M2.789 80.893H50.21v2.789H2.789z"/><path data-name="Rectangle 175" opacity=".6" d="M27.898 36.262h8.368v5.578h-8.368z"/><path data-name="Path 110" d="M36.262 4.762v11.975h11.975z" opacity=".6"/><path data-name="Path 111" d="M53 30.686h25.1V8.368H43.813l2.965 2.965a1.353 1.353 0 0 1 .642-.176h8.37a1.394 1.394 0 0 1 1.393 1.4v5.579h5.579v-5.581a1.393 1.393 0 0 1 1.395-1.393h8.37a1.394 1.394 0 0 1 1.393 1.4V26.51a1.394 1.394 0 0 1-1.4 1.393H52.995z" opacity=".2"/><path data-name="Rectangle 176" opacity=".6" d="M65.551 13.947h5.579V25.1h-5.579z"/><path data-name="Rectangle 177" opacity=".6" d="M57.183 20.92h5.58v4.18h-5.58z"/><path data-name="Path 112" d="M32.082 31.261l-2.216 2.212h4.428z" opacity=".6"/><path data-name="Path 113" d="M53 25.1h1.394V13.947h-5l3.2 3.2a1.385 1.385 0 0 1 .41.987z" opacity=".6"/><path data-name="Rectangle 178" opacity=".6" d="M53 64.157h30.683v2.789H53z"/><path data-name="Path 115" d="M41.024 5.579h38.478a1.394 1.394 0 0 1 1.393 1.395V32.08a1.394 1.394 0 0 1-1.4 1.393h-26.5v2.789h27.897v2.79H52.999v2.789h27.893v2.79H52.999v2.789h27.893v2.79H52.999V53h27.893v2.786H52.999v5.579h30.683V2.786H38.234z" opacity=".6"/><path data-name="Path 116" d="M9.763 58.578a1.4 1.4 0 1 0-1.4-1.4 1.4 1.4 0 0 0 1.4 1.4z" opacity=".2"/><path data-name="Path 117" d="M9.763 69.736a1.395 1.395 0 1 0-1.4-1.395 1.4 1.4 0 0 0 1.4 1.395z" opacity=".2"/><path data-name="Path 118" d="M85.079 0H34.868v.014a1.354 1.354 0 0 0-1.4 1.31v15.413H1.392a1.393 1.393 0 0 0-1.4 1.393v66.946a1.394 1.394 0 0 0 1.393 1.4h50.207a1.394 1.394 0 0 0 1.4-1.388V69.735h32.077a1.394 1.394 0 0 0 1.4-1.393V1.395A1.394 1.394 0 0 0 85.079 0zM36.262 4.762l11.975 11.975H36.262zm36.263 23.132a1.394 1.394 0 0 0 1.4-1.393V12.552a1.394 1.394 0 0 0-1.393-1.4h-8.37a1.393 1.393 0 0 0-1.395 1.393v5.581h-5.579v-5.579a1.394 1.394 0 0 0-1.393-1.4h-8.37a1.353 1.353 0 0 0-.642.176l-2.965-2.965h34.287v22.328h-25.1v-2.79zM57.183 25.1v-4.18h5.579v4.18zm8.368 0V13.947h5.579V25.1zM50.21 83.686H2.792v-2.79h47.421zm0-5.582H2.792V19.526h47.421zm2.38-60.956l-3.2-3.2h5v11.153h-1.394v-6.969a1.385 1.385 0 0 0-.404-.988zm31.093 49.8H53v-2.789h30.683zm0-5.579H53v-5.583h27.892v-2.788H52.999v-2.79h27.893v-2.79H52.999v-2.789h27.893v-2.79H52.999V39.05h27.893v-2.79H52.999v-2.789h26.5a1.394 1.394 0 0 0 1.4-1.393V6.974a1.394 1.394 0 0 0-1.393-1.395H41.028l-2.789-2.79h45.448z"/><path data-name="Path 119" d="M6.973 50.209h39.053a1.394 1.394 0 0 0 1.394-1.394v-25.1a1.394 1.394 0 0 0-1.388-1.4H6.974a1.393 1.393 0 0 0-1.395 1.393v25.107a1.394 1.394 0 0 0 1.394 1.394zm1.4-25.1h36.262v22.306H8.372z"/><path data-name="Path 120" d="M38.634 33.886h.013l-5.579-5.579a1.392 1.392 0 0 0-1.97 0l-4.6 4.591-4.592-4.591a1.392 1.392 0 0 0-1.97 0l-5.579 5.579a1.378 1.378 0 0 0-.4.986h-.009v8.368a1.394 1.394 0 0 0 1.393 1.4h22.317a1.4 1.4 0 0 0 1.39-1.4v-8.368h-.013a1.387 1.387 0 0 0-.401-.986zm-17.71-2.621l2.212 2.212h-4.427zm4.184 10.579h-8.372v-5.579h8.368zm6.974-10.579l2.212 2.212h-4.428zm4.184 10.58h-8.368v-5.578h8.368z"/><path data-name="Path 121" d="M9.763 61.367a4.184 4.184 0 1 0-4.184-4.184 4.184 4.184 0 0 0 4.184 4.184zm0-5.579a1.4 1.4 0 1 1-1.4 1.4 1.4 1.4 0 0 1 1.4-1.402z"/><path data-name="Rectangle 179" d="M16.737 52.999h30.684v2.789H16.737z"/><path data-name="Rectangle 180" d="M16.737 58.578h30.684v2.789H16.737z"/><path data-name="Path 122" d="M9.763 72.525a4.184 4.184 0 1 0-4.184-4.184 4.184 4.184 0 0 0 4.184 4.184zm0-5.579a1.395 1.395 0 1 1-1.4 1.4 1.395 1.395 0 0 1 1.4-1.4z"/><path data-name="Rectangle 181" d="M16.737 69.735h30.684v2.789H16.737z"/><path data-name="Rectangle 182" d="M16.737 64.157h30.684v2.789H16.737z"/></g></svg>