<svg xmlns="http://www.w3.org/2000/svg" width="86.501" height="86.573" viewBox="0 0 86.501 86.573"><g data-name="Group 11"><path data-name="Rectangle 133" fill="#ffe200" d="M37.67 11.161h11.161v5.581H37.67z"/><path data-name="Rectangle 134" fill="#ffe200" d="M51.62 27.9h11.161v5.581H51.62z"/><path data-name="Rectangle 135" fill="#1b3990" opacity=".6" d="M23.718 11.161h11.16v5.581h-11.16z"/><path data-name="Path 71" d="M41.855 25.112v-5.586H26.619l4.466 5.581z" fill="#ffe200"/><path data-name="Rectangle 136" fill="#1b3990" opacity=".2" d="M58.6 19.532h11.157v5.581H58.6z"/><path data-name="Rectangle 137" fill="#1b3990" opacity=".6" d="M44.644 19.532h11.161v5.581H44.644z"/><path data-name="Rectangle 138" fill="#ffe200" d="M30.693 2.79h11.161v5.581H30.693z"/><path data-name="Rectangle 139" fill="#ffe200" d="M51.62 11.161h11.161v5.581H51.62z"/><path data-name="Rectangle 140" fill="#1b3990" opacity=".2" d="M16.743 2.79h11.159v5.581H16.743z"/><path data-name="Rectangle 141" fill="#1b3990" opacity=".6" d="M2.79 2.79h11.161v5.581H2.79z"/><path data-name="Rectangle 142" fill="#1b3990" opacity=".6" d="M44.644 2.79h11.161v5.581H44.644z"/><path data-name="Rectangle 143" fill="#1b3990" opacity=".2" d="M58.6 69.757h11.157v5.581H58.6z"/><path data-name="Rectangle 144" fill="#ffe200" d="M46.04 61.386h16.742v5.581H46.04z"/><path data-name="Rectangle 145" fill="#1b3990" opacity=".6" d="M46.04 69.757h9.766v5.581H46.04z"/><path data-name="Rectangle 146" fill="#ffe200" d="M58.6 2.79h11.157v5.581H58.6z"/><path data-name="Rectangle 147" fill="#ffe200" d="M58.6 36.273h11.157v5.581H58.6z"/><path data-name="Rectangle 148" fill="#ffe200" d="M46.04 36.273h9.766v5.581H46.04z"/><path data-name="Rectangle 149" fill="#1b3990" opacity=".2" d="M46.042 44.644h16.74v5.581h-16.74z"/><path data-name="Rectangle 150" fill="#1b3990" opacity=".6" d="M46.04 53.015h9.766V58.6H46.04z"/><path data-name="Rectangle 151" fill="#1b3990" opacity=".6" d="M58.6 53.015h11.157V58.6H58.6z"/><path data-name="Rectangle 152" fill="#ffe200" d="M72.548 19.532h11.161v5.582H72.548z"/><path data-name="Rectangle 153" fill="#ffe200" d="M72.548 53.015h11.161V58.6H72.548z"/><path data-name="Rectangle 154" fill="#ffe200" d="M65.571 44.644h18.137v5.583H65.571z"/><path data-name="Rectangle 155" fill="#1b3990" opacity=".6" d="M72.548 36.273h11.161v5.583H72.548z"/><path data-name="Rectangle 156" fill="#ffe200" d="M65.571 61.386h18.138v5.581H65.571z"/><path data-name="Rectangle 157" fill="#ffe200" d="M65.571 27.9h18.137v5.584H65.571z"/><path data-name="Rectangle 158" fill="#ffe200" d="M72.548 2.79h11.161v5.581H72.548z"/><path data-name="Rectangle 159" fill="#1b3990" opacity=".6" d="M65.571 11.161h18.137v5.582H65.571z"/><path data-name="Rectangle 160" fill="#ffe200" d="M72.547 69.757h11.162v5.581H72.547z"/><path data-name="Path 72" d="M48.83 27.9H33.282a15.373 15.373 0 0 1 2.573 5.583H48.83z" fill="#1b3990" opacity=".6"/><path data-name="Path 73" d="M18.136 69.757v11.161a2.79 2.79 0 0 0 5.581 0V69.757a2.79 2.79 0 1 0-5.581 0z" fill="#ffe200"/><path data-name="Path 74" d="M2.79 27.9v5.583h3.211A15.385 15.385 0 0 1 8.572 27.9z" fill="#ffe200"/><path data-name="Rectangle 161" fill="#1b3990" opacity=".6" d="M18.137 47.434h5.581v8.371h-5.581z"/><path data-name="Path 75" d="M15.233 19.532H2.79v5.58h7.981z" fill="#1b3990" opacity=".2"/><path data-name="Rectangle 162" fill="#1b3990" opacity=".2" d="M65.571 78.127h18.137v5.581H65.571z"/><path data-name="Rectangle 163" fill="#ffe200" d="M46.04 78.127h16.742v5.581H46.04z"/><path data-name="Rectangle 164" fill="#ffe200" d="M2.79 11.161h18.137v5.581H2.79z"/><path data-name="Path 76" d="M24.371 21.188a4.407 4.407 0 0 0-6.885 0l-6.362 7.952a12.594 12.594 0 0 0-2.753 7.843v.686a12.5 12.5 0 0 0 6.971 11.254v-2.9a1.4 1.4 0 0 1 1.4-1.388h8.377a1.393 1.393 0 0 1 1.387 1.4v2.881a12.492 12.492 0 0 0 6.976-11.252v-.686a12.6 12.6 0 0 0-2.752-7.843z" fill="#1b3990" opacity=".2"/><path data-name="Path 77" d="M85.113 0H1.4A1.394 1.394 0 0 0 0 1.388.025.025 0 0 0 0 1.4v33.478a1.393 1.393 0 0 0 1.387 1.4H5.61c-.011.236-.031.472-.031.709v.686a15.27 15.27 0 0 0 9.767 14.295V57.2a1.393 1.393 0 0 0 1.387 1.4h2.8v5.779a5.571 5.571 0 0 0-4.185 5.382v11.157a5.58 5.58 0 1 0 11.16.149v-11.31a5.571 5.571 0 0 0-4.185-5.382V58.6h2.791a1.394 1.394 0 0 0 1.4-1.388.024.024 0 0 0 0-.012v-5.238a15.272 15.272 0 0 0 9.766-14.293v-.686c0-.237-.019-.473-.03-.709h7.005V85.1a1.4 1.4 0 0 0 1.388 1.4h40.454a1.4 1.4 0 0 0 1.4-1.388V1.4A1.4 1.4 0 0 0 85.113 0zM58.6 2.79h11.157v5.581H58.6zm4.182 64.177H46.04v-5.581h16.742zm6.975 2.79v5.581H58.6v-5.58zm-13.952 0v5.581H46.04v-5.581zM46.04 58.6v-5.585h9.765V58.6zm12.56 0v-5.585h11.157V58.6zm4.182-8.375H46.04l.005-5.581h16.737zM46.04 41.854v-5.581h9.765v5.581zm12.56 0v-5.581h11.157v5.581zm4.182-8.373H51.62V27.9h11.162zm-20.927-13.95v5.581h-10.77l-4.466-5.581zm-18.137-2.789v-5.581h11.16v5.581zm13.952 0v-5.581h11.16v5.581zm6.974 2.79h11.161v5.581H44.644zM58.6 25.113v-5.581h11.157v5.581zm4.182-8.371H51.62v-5.581h11.162zM44.644 2.79h11.161v5.581H44.644zm-13.951 0h11.162v5.581H30.693zm-13.95 0H27.9v5.581H16.74zm-13.953 0h11.161v5.581H2.79zm0 8.371h18.138v5.581H2.79zm0 8.371h12.443l-4.464 5.58H2.79zm0 13.951V27.9h5.781A15.385 15.385 0 0 0 6 33.483zm20.927 36.274v11.161a2.79 2.79 0 0 1-5.581 0V69.757a2.79 2.79 0 1 1 5.581 0zm0-13.952h-5.58v-8.371h5.581zm9.766-18.137a12.492 12.492 0 0 1-6.976 11.252v-2.881a1.393 1.393 0 0 0-1.387-1.4h-8.377a1.4 1.4 0 0 0-1.4 1.388v2.9a12.5 12.5 0 0 1-6.971-11.254v-.686a12.594 12.594 0 0 1 2.753-7.843l6.362-7.952a4.407 4.407 0 0 1 6.885 0l6.362 7.951a12.6 12.6 0 0 1 2.752 7.843zm2.372-4.187a15.373 15.373 0 0 0-2.573-5.583H48.83v5.581zm26.927 50.227H46.04v-5.582h16.742zm20.927 0H65.571v-5.582h18.138zm0-8.37H72.548v-5.581h11.163zm0-8.371H65.571v-5.581h18.138zm0-8.367H72.548v-5.585h11.161zm0-8.375H65.571V44.64h18.138zm0-8.371H72.548v-5.585h11.161zm0-8.373l-18.138.006V27.9h18.138zm0-8.368H72.548v-5.584h11.161zm0-8.371H65.571v-5.584h18.138zm0-8.371H72.548V2.79h11.161z" fill="#1b3990"/></g></svg>