<svg xmlns="http://www.w3.org/2000/svg" width="86.472" height="86.472" viewBox="0 0 86.472 86.472"><g data-name="Group 14" fill="#fff"><path data-name="Rectangle 183" opacity=".6" d="M41.841 65.551h2.79v5.579h-2.79z"/><path data-name="Path 123" d="M43.241 8.368a34.868 34.868 0 1 0 34.868 34.868A34.868 34.868 0 0 0 43.241 8.368zm4.185 64.157a1.4 1.4 0 0 1-1.4 1.395h-5.579a1.4 1.4 0 0 1-1.4-1.395v-8.368a1.4 1.4 0 0 1 1.4-1.395h5.579a1.4 1.4 0 0 1 1.4 1.395zm.044-25.6l-.043 10.258a1.4 1.4 0 0 1-1.395 1.4h-5.579a1.4 1.4 0 0 1-1.395-1.4v-12.1a6.174 6.174 0 0 1 5.346-6.089 9.753 9.753 0 1 0-10.9-10.343 10.088 10.088 0 0 0 .033 1.685 4.062 4.062 0 0 1-1.029 3.142 4.2 4.2 0 0 1-7.306-2.385q-.088-.888-.088-1.8c0-.248.006-.5.016-.744a18.13 18.13 0 0 1 18.859-17.372 18.134 18.134 0 0 1 3.485 35.752z" opacity=".2"/><path data-name="Path 124" d="M43.868 13.958a15.147 15.147 0 0 0-.64-.013 15.343 15.343 0 0 0-15.337 15.349q0 .773.075 1.523a1.4 1.4 0 0 0 1.4 1.266 1.427 1.427 0 0 0 1.059-.47 1.261 1.261 0 0 0 .328-.985q-.036-.34-.053-.682a12.575 12.575 0 1 1 14.179 11.791 3.407 3.407 0 0 0-3.038 3.34v10.711h2.789v-8.859a2.808 2.808 0 0 1 2.184-2.718 15.344 15.344 0 0 0-2.947-30.251z" opacity=".6"/><path data-name="Path 126" d="M43.241 0a43.236 43.236 0 1 0 43.236 43.236A43.237 43.237 0 0 0 43.241 0zm0 83.683a40.447 40.447 0 1 1 40.447-40.447 40.447 40.447 0 0 1-40.447 40.447z"/><path data-name="Path 127" d="M43.241 5.579a37.657 37.657 0 1 0 37.657 37.657A37.658 37.658 0 0 0 43.241 5.579zm0 72.525a34.868 34.868 0 1 1 34.868-34.868 34.868 34.868 0 0 1-34.868 34.868z"/><path data-name="Path 128" d="M43.98 11.173a18.13 18.13 0 0 0-18.859 17.372c-.01.248-.016.5-.016.744q0 .91.088 1.8a4.2 4.2 0 0 0 7.306 2.385 4.062 4.062 0 0 0 1.029-3.142 10.088 10.088 0 0 1-.033-1.685 9.786 9.786 0 1 1 10.9 10.343 6.174 6.174 0 0 0-5.346 6.089v12.1a1.4 1.4 0 0 0 1.395 1.4h5.579a1.4 1.4 0 0 0 1.395-1.4l.043-10.258a18.134 18.134 0 0 0-3.485-35.752zm2.835 33.036a2.808 2.808 0 0 0-2.184 2.718v8.861h-2.79V45.077a3.407 3.407 0 0 1 3.038-3.34 12.444 12.444 0 0 0 10.2-8.186 12.669 12.669 0 0 0-1.844-11.847A12.554 12.554 0 0 0 30.7 29.946q.016.342.053.682a1.261 1.261 0 0 1-.328.985 1.427 1.427 0 0 1-1.059.47 1.4 1.4 0 0 1-1.4-1.266q-.075-.75-.075-1.523a15.343 15.343 0 0 1 15.337-15.349c.214 0 .427 0 .64.013a15.344 15.344 0 0 1 2.947 30.251z"/><path data-name="Path 129" d="M46.026 62.762h-5.579a1.4 1.4 0 0 0-1.4 1.395v8.368a1.4 1.4 0 0 0 1.4 1.395h5.579a1.4 1.4 0 0 0 1.4-1.395v-8.368a1.4 1.4 0 0 0-1.4-1.395zm-4.185 8.368v-5.579h2.789v5.579z"/></g></svg>