<svg xmlns="http://www.w3.org/2000/svg" width="86.5" height="86.573" viewBox="0 0 86.5 86.573"><g data-name="Group 12" fill="#fad839"><g data-name="Group 12"><path data-name="Path 96" d="M28.6 60.175a1.393 1.393 0 0 1 .7 1.211V66.1l2.789-1.4v-5.3L13.778 48.942l-2.42 1.383 17.238 9.85z" opacity=".6"/><path data-name="Path 97" d="M2.789 73.133L19.531 82.7V66.38L2.789 56.814z" opacity=".6"/><path data-name="Path 99" d="M34.879 65.571a1.4 1.4 0 0 1-.772 1.249l-5.581 2.79a1.4 1.4 0 0 1-2.02-1.249v-4.372l-4.184 2.391V82.7l16.742-9.567V56.816l-4.185 2.391z" opacity=".19"/><path data-name="Path 101" d="M72.547 4.756v9.188h9.188z" opacity=".6"/><path data-name="Path 102" d="M69.756 15.346V2.79H36.278v47.622l4.878 2.787a1.4 1.4 0 0 1 .7 1.211v12.556h27.9V43.249a1.361 1.361 0 0 1 .088-.49L74.029 31.6a1.4 1.4 0 0 1 2.614 0l4.182 11.159a1.407 1.407 0 0 1 .088.49v23.718h2.79l.005-50.221H71.157a1.4 1.4 0 0 1-1.401-1.4z" opacity=".2"/><path data-name="Path 103" d="M76.732 75.337h1.4V45.856l-1.4.931z" opacity=".6"/><path data-name="Path 105" d="M72.542 75.337h1.4v-28.55l-1.4-.932z" opacity=".6"/><path data-name="Path 106" d="M72.542 80.919a2.792 2.792 0 0 0 2.789 2.79h.006a2.792 2.792 0 0 0 2.785-2.789v-2.79h-5.58z" opacity=".19"/><path data-name="Path 107" d="M72.139.41a1.386 1.386 0 0 0-.987-.41H34.878a1.4 1.4 0 0 0-1.4 1.4v47.417L21.62 42.038a1.39 1.39 0 0 0-1.384 0L.701 53.2a1.39 1.39 0 0 0-.7 1.21v19.532a1.393 1.393 0 0 0 .7 1.211l19.535 11.161a1.4 1.4 0 0 0 1.384 0l19.531-11.158a1.394 1.394 0 0 0 .7-1.211v-4.189h27.9v11.161a5.581 5.581 0 1 0 11.161.149v-11.31H85.1a1.4 1.4 0 0 0 1.4-1.4v-53.01a1.389 1.389 0 0 0-.412-.987zm.408 4.349l9.188 9.188h-9.188zm-51.62 40.1l16.719 9.554-4.337 2.479-16.719-9.554zm-7.15 4.086l18.311 10.458v5.3l-2.789 1.4v-4.717a1.393 1.393 0 0 0-.7-1.211h-.005l-17.238-9.85zm5.755 33.758L2.789 73.136V56.814l16.743 9.566zm1.4-18.736L4.213 54.413l4.337-2.479 16.721 9.554zm18.137 9.169l-16.742 9.567v-16.32l4.184-2.391v4.364a1.4 1.4 0 0 0 2.02 1.249l5.581-2.79a1.4 1.4 0 0 0 .772-1.249v-6.364l4.185-2.391zm39.058 7.786a2.792 2.792 0 0 1-2.785 2.789h-.006a2.792 2.792 0 0 1-2.789-2.79v-2.79h5.58zm-4.18-34.132v28.55h-1.4V45.856zm-1.1-4.083l2.49-6.641 2.491 6.641-2.491 1.66zm5.29 32.633h-1.4V46.79l1.4-.931zm5.572-8.37h-2.79V43.249a1.407 1.407 0 0 0-.088-.49L76.649 31.6a1.4 1.4 0 0 0-2.614 0L69.85 42.759a1.361 1.361 0 0 0-.088.49v23.717h-27.9V54.41a1.4 1.4 0 0 0-.7-1.211l-4.878-2.787V2.79h33.478v12.556a1.4 1.4 0 0 0 1.4 1.4h12.551z"/></g><path data-name="Path 37" d="M39.064 19.532h2.79v2.79h-2.79z"/><path data-name="Path 38" d="M44.644 19.532h36.273v2.79H44.644z"/><path data-name="Path 39" d="M78.127 25.112h2.79v2.79h-2.79z"/><path data-name="Path 40" d="M39.064 25.112h36.273v2.79H39.064z"/><path data-name="Path 41" d="M39.064 30.693h27.9v2.79h-27.9z"/><path data-name="Path 42" d="M39.064 36.273h27.9v2.79h-27.9z"/></g></svg>