<!-- Template for gulp sprite generation to output as symbols -->
<svg style="position: absolute; width: 0; height: 0; overflow: hidden;" version="1.1" xmlns="http://www.w3.org/2000/svg" xmlns:xlink="http://www.w3.org/1999/xlink"><defs> <symbol id="icon-basket" viewBox="0 0 505.612 505.612"><title>icon-basket</title><path d="M500.236 210.074c-3.586-3.586-7.77-5.379-12.551-5.379h-52.504L378.913 83.968c-2.789-5.977-7.371-8.965-13.746-8.965h-41.834v-4.78c0-2.391-.797-4.383-2.393-5.977-1.594-1.594-3.586-2.391-5.977-2.391h-122.52c-2.391 0-4.383.797-5.977 2.391-1.594 1.594-2.391 3.586-2.391 5.977v4.78h-43.628c-6.375 0-10.957 2.988-13.746 8.965L70.436 204.695H17.93c-4.781 0-8.965 1.793-12.551 5.379S0 217.845 0 222.626c0 2.391.398 4.582 1.195 6.573l81.879 203.203c1.195 3.188 3.387 5.877 6.574 8.068s6.574 3.287 10.16 3.287h306c3.586 0 6.973-1.096 10.16-3.287 3.186-2.191 5.379-4.881 6.574-8.068l81.879-203.203c.797-1.991 1.191-4.184 1.191-6.573.003-4.782-1.79-8.966-5.376-12.552zm-94.427 134.472h-60.961v-40.643h60.961v40.643zm20.32-40.641h9.695l-9.695 24.023v-24.023zm-327.516 0h51.997v40.643H98.613v-40.643zm-20.32 21.06l-8.5-21.062h8.5v21.062zm72.317-84.411v43.031H98.613v-43.031h51.997zm173.917 0v43.032l-61.559-.001v-43.031h61.559zm-81.878 43.031H170.93v-43.031h71.719v43.031zm-71.719 20.32h71.719v40.643H170.93v-40.643zm71.719 60.96v43.033H170.93v-43.033h71.719zm20.32 0h61.559v43.033h-61.559v-43.033zm0-20.319v-40.643h61.559v40.643h-61.559zm81.879-60.96v-43.032h60.961v43.032h-60.961zM150.012 105.483h34.066v5.381c0 2.391.797 4.383 2.391 5.977 1.594 1.594 3.586 2.391 5.977 2.391h122.521c2.391 0 4.383-.797 5.977-2.391s2.393-3.586 2.393-5.977v-5.381h32.27l45.533 99.211H104.48l45.532-99.211zM78.293 240.554v43.031h-16.7l-17.366-43.031h34.066zm16.102 124.311h56.215v43.033h-38.848l-17.367-43.033zm299.46 43.033h-49.008v-43.033h60.961v13.415l-11.953 29.618zm50.17-124.312h-17.896v-43.032h35.262l-17.366 43.032z"></path> </symbol>  <symbol id="icon-magnifying" viewBox="0 0 40 40"><title>icon-magnifying</title><path d="M15.553 31.107c8.59 0 15.554-6.964 15.554-15.554S24.143 0 15.553 0 0 6.964 0 15.553c0 8.59 6.964 15.554 15.553 15.554zm0-3.888c6.443 0 11.666-5.225 11.666-11.668 0-6.442-5.225-11.665-11.668-11.665-6.442 0-11.665 5.223-11.665 11.665 0 6.443 5.223 11.666 11.665 11.666zm12.21 3.84a2.005 2.005 0 0 1 .002-2.833l.463-.463a2.008 2.008 0 0 1 2.833-.003l8.17 8.168c.78.78.78 2.05-.004 2.833l-.462.463a2.008 2.008 0 0 1-2.834.004l-8.168-8.17z" fill-rule="evenodd"></path> </symbol>  </defs></svg>