<svg width="35" height="40" viewBox="0 0 35 40" fill="none" xmlns="http://www.w3.org/2000/svg"><path d="M1.094 12.5a.938.938 0 0 1-.933-.938V8.438c0-.516.42-.938.933-.938H2.65V3.75C2.65 1.68 4.322 0 6.382 0h24.885A3.743 3.743 0 0 1 35 3.75v32.5c0 2.07-1.672 3.75-3.733 3.75H6.382a3.742 3.742 0 0 1-3.732-3.75V32.5H1.094a.938.938 0 0 1-.933-.938v-3.125c0-.515.42-.937.933-.937H2.65v-5H1.094a.938.938 0 0 1-.933-.938v-3.125c0-.515.42-.937.933-.937H2.65v-5H1.094zm17.73-2.5c-2.744 0-4.976 2.242-4.976 5s2.232 5 4.977 5 4.977-2.242 4.977-5-2.232-5-4.977-5zm-8.709 18.5c0 .828.778 1.5 1.742 1.5h13.936c.964 0 1.742-.672 1.742-1.5V27c0-2.484-2.341-4.5-5.226-4.5h-.39a8.023 8.023 0 0 1-3.094.625 7.994 7.994 0 0 1-3.095-.625h-.389c-2.885 0-5.226 2.016-5.226 4.5v1.5z" fill="#fff"/></svg>