<svg width="42" height="40" viewBox="0 0 42 40" fill="none" xmlns="http://www.w3.org/2000/svg"><path d="M20.661 0l-7.79 4.876H6.199v4.132l-4.194 2.666A4.114 4.114 0 0 0 0 15.207v20.66A4.132 4.132 0 0 0 4.132 40H37.19a4.118 4.118 0 0 0 4.132-4.132V15.207c0-1.509-.806-2.81-2.004-3.533l-4.194-2.666V4.876H28.45L20.661 0zm-10.33 9.008h20.66v10.083l-10.33 6.446-10.33-6.446V9.008zm2.066 2.066v3.1h16.529v-3.1h-16.53zm-6.199 2.852v2.582l-2.066-1.301 2.066-1.281zm28.926 0l2.066 1.28-2.066 1.302v-2.582zM12.397 16.24v3.099h16.529v-3.1h-16.53z" fill="#fff"/></svg>