<svg width="37" height="40" viewBox="0 0 37 40" fill="none" xmlns="http://www.w3.org/2000/svg"><path d="M20.802 18.437c.273-3.565 3.275-6.385 6.932-6.405V1.172C27.734.525 27.21 0 26.562 0H1.172C.525 0 0 .525 0 1.172v29.765c0 .648.525 1.172 1.172 1.172h15.055V21.89a3.456 3.456 0 0 1 3.452-3.452h1.123zm-9.083-13.71h10.468a1.172 1.172 0 0 1 0 2.343H11.72a1.172 1.172 0 0 1 0-2.343zM7.878 19.705l-2.255 2.422a1.172 1.172 0 0 1-1.77-.065l-.938-1.166a1.172 1.172 0 0 1 1.827-1.469l.089.111 1.332-1.43a1.172 1.172 0 1 1 1.715 1.597zm0-7.11l-2.255 2.422a1.172 1.172 0 0 1-1.77-.064l-.938-1.167a1.172 1.172 0 0 1 1.827-1.468l.089.111 1.332-1.43a1.172 1.172 0 1 1 1.715 1.596zm0-7.109L5.623 7.908a1.172 1.172 0 0 1-1.77-.065l-.938-1.166a1.172 1.172 0 0 1 1.827-1.468l.089.11 1.332-1.43a1.172 1.172 0 1 1 1.715 1.597zm5.794 15.803h-1.953a1.172 1.172 0 0 1 0-2.344h1.953a1.172 1.172 0 0 1 0 2.344zm4.61-7.11h-6.563a1.172 1.172 0 0 1 0-2.343h6.562a1.172 1.172 0 0 1 0 2.344z" fill="#fff"/><path d="M35.867 20.781h-3.445v2.867a1.172 1.172 0 0 1-2.344 0v-2.867h-4.61v2.867a1.172 1.172 0 0 1-2.343 0v-2.867h-3.446a1.11 1.11 0 0 0-1.109 1.109v13.77c0 2.393 1.95 4.34 4.347 4.34h9.713a4.348 4.348 0 0 0 4.346-4.34V21.89c0-.612-.496-1.109-1.109-1.109z" fill="#fff"/><path d="M25.469 18.969c0-1.24 1.034-2.25 2.304-2.25 1.271 0 2.305 1.009 2.305 2.25v1.812h2.344V18.97c0-2.533-2.085-4.594-4.649-4.594-2.563 0-4.648 2.06-4.648 4.594v1.812h2.344V18.97z" fill="#fff"/></svg>