<svg width="39" height="40" viewBox="0 0 39 40" fill="none" xmlns="http://www.w3.org/2000/svg"><path d="M36.53 20.518a1.172 1.172 0 0 1 0-1.036l1.493-3.052c.83-1.7.172-3.725-1.499-4.611l-3-1.592a1.172 1.172 0 0 1-.61-.838l-.586-3.346a3.473 3.473 0 0 0-3.923-2.85l-3.363.475a1.172 1.172 0 0 1-.986-.32L21.615.986a3.472 3.472 0 0 0-4.849 0l-2.441 2.362a1.173 1.173 0 0 1-.986.32l-3.363-.475a3.472 3.472 0 0 0-3.922 2.85l-.587 3.346c-.064.36-.286.666-.61.838l-3 1.592A3.472 3.472 0 0 0 .359 16.43l1.492 3.052c.16.33.16.707 0 1.036L.359 23.57a3.472 3.472 0 0 0 1.498 4.611l3 1.592c.324.172.546.478.61.839l.587 3.346a3.47 3.47 0 0 0 3.922 2.85l3.364-.476c.362-.052.722.065.985.32l2.441 2.362a3.476 3.476 0 0 0 4.849 0l2.441-2.362c.264-.255.623-.371.986-.32l3.363.475a3.472 3.472 0 0 0 3.923-2.85l.587-3.345c.063-.361.285-.667.609-.839l3-1.592a3.472 3.472 0 0 0 1.499-4.611l-1.492-3.052zm-21.953-10.9a4.234 4.234 0 0 1 4.23 4.23 4.234 4.234 0 0 1-4.23 4.23 4.234 4.234 0 0 1-4.23-4.23 4.234 4.234 0 0 1 4.23-4.23zm-2.184 18.81a1.15 1.15 0 0 1-1.63 0 1.151 1.151 0 0 1 0-1.63l15.225-15.226a1.154 1.154 0 0 1 1.631 1.63L12.393 28.429zm11.412 1.954a4.234 4.234 0 0 1-4.23-4.23 4.234 4.234 0 0 1 4.23-4.23 4.234 4.234 0 0 1 4.23 4.23 4.234 4.234 0 0 1-4.23 4.23z" fill="#fff"/><path d="M23.804 24.23c-1.06 0-1.922.862-1.922 1.922s.862 1.923 1.922 1.923 1.923-.863 1.923-1.923-.863-1.922-1.923-1.922zm-9.227-12.305c-1.06 0-1.923.863-1.923 1.923s.863 1.922 1.923 1.922 1.922-.862 1.922-1.922-.862-1.923-1.922-1.923z" fill="#fff"/></svg>