<svg width="40" height="40" viewBox="0 0 40 40" fill="none" xmlns="http://www.w3.org/2000/svg"><path d="M5 5h8.333c0-2.758 2.99-5 6.667-5 3.677 0 6.667 2.242 6.667 5H35c2.76 0 5 1.68 5 3.75v27.5c0 2.07-2.24 3.75-5 3.75H5c-2.76 0-5-1.68-5-3.75V8.75C0 6.68 2.24 5 5 5zm25 28.125c1.385 0 2.5-.836 2.5-1.875 0-1.04-1.115-1.875-2.5-1.875s-2.5.836-2.5 1.875c0 1.04 1.115 1.875 2.5 1.875zm0-7.5c1.385 0 2.5-.836 2.5-1.875 0-1.04-1.115-1.875-2.5-1.875s-2.5.836-2.5 1.875c0 1.04 1.115 1.875 2.5 1.875zm0-7.5c1.385 0 2.5-.836 2.5-1.875 0-1.04-1.115-1.875-2.5-1.875s-2.5.836-2.5 1.875c0 1.04 1.115 1.875 2.5 1.875zm-10-15c-1.385 0-2.5.836-2.5 1.875 0 1.04 1.115 1.875 2.5 1.875S22.5 6.039 22.5 5c0-1.04-1.115-1.875-2.5-1.875zM6.667 31.875c0 .344.375.625.833.625h15c.458 0 .833-.281.833-.625v-1.25c0-.344-.375-.625-.833-.625h-15c-.458 0-.833.281-.833.625v1.25zm0-7.5c0 .344.375.625.833.625h15c.458 0 .833-.281.833-.625v-1.25c0-.344-.375-.625-.833-.625h-15c-.458 0-.833.281-.833.625v1.25zm0-7.5c0 .344.375.625.833.625h15c.458 0 .833-.281.833-.625v-1.25c0-.344-.375-.625-.833-.625h-15c-.458 0-.833.281-.833.625v1.25z" fill="#fff"/></svg>